<?xml version="1.0" encoding="UTF-8" standalone="no"?>
<!-- Generator: Adobe Illustrator 19.1.0, SVG Export Plug-In . SVG Version: 6.00 Build 0)  -->

<svg
   version="1.1"
   id="Capa_1"
   x="0px"
   y="0px"
   viewBox="0 0 328.135 328.135"
   style="enable-background:new 0 0 328.135 328.135;"
   xml:space="preserve"
   sodipodi:docname="night_icon.svg"
   inkscape:version="1.1.1 (3bf5ae0d25, 2021-09-20)"
   xmlns:inkscape="http://www.inkscape.org/namespaces/inkscape"
   xmlns:sodipodi="http://sodipodi.sourceforge.net/DTD/sodipodi-0.dtd"
   xmlns="http://www.w3.org/2000/svg"
   xmlns:svg="http://www.w3.org/2000/svg"><defs
   id="defs39" /><sodipodi:namedview
   id="namedview37"
   pagecolor="#ffffff"
   bordercolor="#666666"
   borderopacity="1.0"
   inkscape:pageshadow="2"
   inkscape:pageopacity="0.0"
   inkscape:pagecheckerboard="0"
   showgrid="false"
   inkscape:zoom="2.0256308"
   inkscape:cx="154.76661"
   inkscape:cy="72.323151"
   inkscape:window-width="1366"
   inkscape:window-height="704"
   inkscape:window-x="0"
   inkscape:window-y="0"
   inkscape:window-maximized="1"
   inkscape:current-layer="Capa_1" />
<g
   id="g4">
	<path
   d="M304.418,240.73c-11.118,2.815-22.533,4.235-33.908,4.235c-62.244,0-117.103-41.999-133.408-102.142   c-12.699-46.871-0.347-95.959,33.053-131.307L181.035,0l-15.829,0.681c-12.192,0.521-24.281,2.391-35.92,5.54   C42.126,29.865-9.565,120.002,14.06,207.175c19.306,71.222,84.269,120.959,157.984,120.959c14.435,0,28.882-1.934,42.944-5.746   c40.264-10.919,74.526-36.511,96.473-72.051l8.336-13.49L304.418,240.73z M211.621,309.992   c-12.963,3.509-26.279,5.289-39.576,5.289c-67.925,0-127.785-45.836-145.581-111.473C4.69,123.479,52.319,40.412,132.648,18.644   c5.797-1.568,11.716-2.796,17.706-3.663c-28.516,37.276-38.124,85.22-25.656,131.217c17.815,65.727,77.784,111.628,145.812,111.628   c7.095,0,14.197-0.508,21.247-1.51C271.692,282.453,243.723,301.277,211.621,309.992z M178.78,83.041l31.517-8.953l9.64-31.299   l8.959,31.504l31.312,9.647L228.684,92.9l-9.64,31.305l-8.953-31.504L178.78,83.041z M247.322,136.988l21.909-7.172l5.9-22.275   l7.172,21.896l22.282,5.926l-21.903,7.16l-5.919,22.275l-7.159-21.896L247.322,136.988z"
   id="path2"
   style="fill:#ffffff" />
</g>
<g
   id="g6">
</g>
<g
   id="g8">
</g>
<g
   id="g10">
</g>
<g
   id="g12">
</g>
<g
   id="g14">
</g>
<g
   id="g16">
</g>
<g
   id="g18">
</g>
<g
   id="g20">
</g>
<g
   id="g22">
</g>
<g
   id="g24">
</g>
<g
   id="g26">
</g>
<g
   id="g28">
</g>
<g
   id="g30">
</g>
<g
   id="g32">
</g>
<g
   id="g34">
</g>
<path
   style="fill:#ffffff;stroke-width:0.17454"
   d="m 183.79309,230.21355 c -13.01589,-9.14623 -24.79973,-20.61126 -34.43884,-33.50708 -14.98756,-20.05132 -24.80081,-43.9666 -28.39428,-69.19795 -1.12112,-7.87188 -1.46564,-12.94973 -1.45708,-21.47553 0.007,-6.669449 0.19239,-10.44108 0.78415,-15.926767 l 0.2024,-1.876304 h 6.43285 6.43284 l -0.0888,0.392715 c -0.11562,0.511283 -0.55002,4.751433 -0.82702,8.07247 -0.33631,4.032256 -0.27833,15.925506 0.0991,20.333896 1.04201,12.16932 3.29913,23.09426 7.06785,34.20982 8.30524,24.49568 23.64189,46.47575 43.83513,62.82331 7.79957,6.31419 15.35,11.22536 24.34832,15.83735 l 3.83988,1.96809 -12.74142,-4e-5 -12.74141,-3e-5 z"
   id="path324" /><path
   style="fill:#ffffff;stroke-width:0.17454"
   d="m 214.60538,108.29786 c -2.39522,-8.448532 -4.4033,-15.43923 -4.46242,-15.534889 -0.0591,-0.09566 -7.03183,-2.308522 -15.49492,-4.917476 -8.46308,-2.608956 -15.35266,-4.778313 -15.31018,-4.820794 0.0425,-0.04248 7.04173,-2.054734 15.55389,-4.471675 l 15.47665,-4.394437 4.7323,-15.392125 c 2.60277,-8.465669 4.77481,-15.392389 4.82676,-15.392712 0.0689,-4.28e-4 7.06247,24.361219 8.71923,30.37271 l 0.16928,0.614243 15.55831,4.786074 15.55832,4.786074 -14.28998,4.058308 c -7.85949,2.23207 -14.90841,4.239603 -15.66426,4.461187 l -1.37427,0.402878 -4.73462,15.402564 c -2.60405,8.4714 -4.7739,15.40221 -4.8219,15.40179 -0.048,-3.4e-4 -2.04698,-6.91319 -4.44219,-15.36172 z"
   id="path363" /><path
   style="fill:#ffffff;stroke-width:0.17454"
   d="m 273.25987,153.79519 c -1.91023,-5.86986 -3.5417,-10.7488 -3.6255,-10.84208 -0.0838,-0.0933 -5.07398,-1.47614 -11.08931,-3.07302 l -10.93695,-2.90343 1.6465,-0.53811 c 13.26231,-4.33445 19.98095,-6.53988 20.01553,-6.57023 0.0233,-0.0204 1.33947,-4.93416 2.92483,-10.91938 1.58537,-5.98522 2.90665,-10.90639 2.9362,-10.93594 0.0295,-0.0295 1.61946,4.74114 3.53314,10.60151 1.91369,5.86037 3.51871,10.71491 3.56671,10.78785 0.048,0.073 4.91766,1.41241 10.82147,2.97659 5.90381,1.56419 10.79294,2.89724 10.86473,2.96234 0.0718,0.0651 -4.67092,1.6852 -10.53937,3.60021 -8.58203,2.80052 -10.69853,3.55027 -10.81617,3.83153 -0.0805,0.19233 -1.41356,5.14081 -2.96246,10.99662 -1.5489,5.85581 -2.82744,10.65842 -2.8412,10.67247 -0.0138,0.014 -1.58792,-4.77708 -3.49815,-10.64693 z"
   id="path402" /><path
   style="fill:#ffffff;stroke-width:0.246837"
   d="m 8.8012702,174.94551 c -0.8311734,-14.2187 -0.077891,-26.68634 2.4495638,-40.54293 1.653768,-9.06667 5.476869,-22.14284 9.057084,-30.97801 9.51088,-23.4707 24.141935,-44.363155 42.758857,-61.057624 22.85419,-20.49418 50.974105,-34.1123955 81.085855,-39.2691287 8.22315,-1.408241 14.74091,-2.0508089 25.05392,-2.46999713 3.39401,-0.13795451 7.38946,-0.32161908 8.87878,-0.40814344 l 2.70785,-0.15731707 -1.94787,2.06693204 C 166.59106,15.132514 165.01114,16.895027 161.05453,21.97622 c -13.79021,17.709796 -23.45936,39.664782 -27.01072,61.331164 -0.27816,1.697002 -0.56618,3.446457 -0.64005,3.887678 l -0.13432,0.802219 h -6.31723 -6.31724 l 0.15832,-1.54273 c 0.5181,-5.048602 2.48317,-14.427816 4.48634,-21.413083 4.91516,-17.139695 13.39138,-34.289319 23.76252,-48.077854 0.74297,-0.987786 1.28651,-1.860323 1.20786,-1.938971 -0.37204,-0.372041 -11.82543,1.939776 -18.03627,3.640542 -21.15306,5.792523 -40.050823,15.709653 -57.298804,30.069153 -4.131725,3.439793 -13.171305,12.333331 -16.574911,16.30713 -11.619497,13.566059 -20.273438,27.80707 -26.624483,43.813512 -7.726927,19.47406 -11.368039,40.82462 -10.481748,61.46234 0.145756,3.394 0.327188,6.42084 0.403182,6.7263 l 0.138171,0.55538 H 15.365766 8.9563838 Z"
   id="path441" /><path
   style="fill:#ffffff;stroke-width:0.246837"
   d="m 235.51704,301.42322 c 10.75018,-4.94686 21.42281,-11.53369 30.78384,-18.99887 8.12759,-6.48155 17.48185,-15.83131 23.75092,-23.7395 2.04941,-2.58525 2.03712,-2.45041 0.20525,-2.25266 -6.55698,0.70784 -9.41698,0.93319 -14.16504,1.11615 -30.90057,1.19069 -61.87686,-7.37165 -87.5975,-24.21334 l -2.18684,-1.43193 h 12.67941 12.67941 l 3.57712,1.57656 c 10.70741,4.7191 22.70481,8.20529 34.4317,10.0051 7.57761,1.16299 10.69223,1.37063 20.61087,1.37402 15.05007,0.005 21.93087,-0.94254 40.22918,-5.5407 4.81663,-1.21037 8.78687,-2.1713 8.82277,-2.1354 0.10666,0.10666 -9.03315,14.80646 -11.45087,18.41674 -11.77982,17.59029 -27.34185,33.1358 -44.84294,44.79532 l -3.52813,2.35049 h -13.436 -13.43601 z"
   id="path480" /></svg>
