<svg width="138" height="138" viewBox="0 0 138 138" fill="none" xmlns="http://www.w3.org/2000/svg">
<g filter="url(#filter0_d_1129_113)">
<path d="M62.521 0.13572C62.0219 0.256183 59.5699 0.686409 57.0729 1.09112C10.1741 8.69809 -12.0083 65.9044 17.0263 104.367C26.0681 116.344 46.8323 129.906 47.8607 124.506C47.9895 123.832 46.7534 122.978 43.6854 121.624C31.0991 116.065 19.7097 105.112 13.4955 92.5938C-9.07443 47.1276 29.5402 -4.32319 79.965 4.02852C87.5399 5.28359 88.8555 2.66782 81.4319 1.11129C78.053 0.402757 64.344 -0.303999 62.521 0.136315V0.13572ZM62.8236 13.5427C53.9562 14.8494 42.5455 19.3896 42.5455 21.6114C42.5455 23.3352 43.8261 23.2017 48.5063 20.9901C74.1424 8.8779 105.354 22.1306 114.64 49.0716C130.075 93.8524 79.1194 131.76 40.427 104.279C18.9264 89.009 13.9684 58.679 29.4031 36.8396C33.4989 31.0443 31.3436 28.5941 27.1612 34.2914C1.39221 69.3966 28.2964 118.982 71.7711 116.507C115.658 114.008 136.641 61.4206 106.441 29.6195C95.3694 17.9613 77.5088 11.378 62.8242 13.5415L62.8236 13.5427ZM115.588 21.4488C114.688 22.349 115.376 23.9601 118.257 27.704C139.62 55.4579 132.626 96.9429 103.294 116.46C90.0768 125.255 78.472 127.692 56.7708 126.233C54.7271 126.096 54.3491 126.252 54.3491 127.237C54.3491 131.711 80.324 130.498 93.2029 125.422C130.968 110.539 145.858 62.4946 123.094 28.9739C118.774 22.6137 116.602 20.4352 115.588 21.4494L115.588 21.4488ZM51.2645 44.1107C50.191 45.2963 50.099 46.6867 49.9347 64.2031C49.6647 92.9997 46.7985 92.1292 81.569 73.8111C98.5145 64.8831 98.6095 65.1632 74.3056 52.4143C55.3039 42.4467 53.3949 41.7584 51.2645 44.1107V44.1107ZM72.2637 55.0052C90.726 64.6481 90.8221 64.7081 89.5308 65.7798C88.0829 66.982 55.1615 84 54.285 84C53.5812 84 53.4412 80.8353 53.4412 64.9324C53.4412 51.5574 53.6388 45.8642 54.1022 45.8642C54.4654 45.8642 62.6385 49.9778 72.2643 55.0052H72.2637Z" fill="white"/>
</g>
<defs>
<filter id="filter0_d_1129_113" x="0" y="0" width="137.865" height="138" filterUnits="userSpaceOnUse" color-interpolation-filters="sRGB">
<feFlood flood-opacity="0" result="BackgroundImageFix"/>
<feColorMatrix in="SourceAlpha" type="matrix" values="0 0 0 0 0 0 0 0 0 0 0 0 0 0 0 0 0 0 127 0" result="hardAlpha"/>
<feOffset dy="4"/>
<feGaussianBlur stdDeviation="2"/>
<feComposite in2="hardAlpha" operator="out"/>
<feColorMatrix type="matrix" values="0 0 0 0 0 0 0 0 0 0 0 0 0 0 0 0 0 0 0.25 0"/>
<feBlend mode="normal" in2="BackgroundImageFix" result="effect1_dropShadow_1129_113"/>
<feBlend mode="normal" in="SourceGraphic" in2="effect1_dropShadow_1129_113" result="shape"/>
</filter>
</defs>
</svg>
